<svg width="60" height="57" viewBox="0 0 60 57" fill="none" xmlns="http://www.w3.org/2000/svg">
<path d="M33.9951 3.53C31.8276 1.33 29.0099 0.23 26.4089 0.23C23.8079 0.23 20.7734 1.33 18.8227 3.53L6.25123 15.85C1.91626 20.25 1.91626 27.07 6.25123 31.47C10.5862 35.87 17.3054 35.87 21.6404 31.47L33.9951 18.93C38.1133 14.75 38.1133 7.71 33.9951 3.53ZM30.9606 15.85L24.8916 22.01L17.0887 14.31L7.55172 23.99C7.55172 22.23 7.98522 20.25 9.50246 18.93L21.8571 6.39C22.9409 5.29 24.6749 4.63 26.1921 4.63C27.7094 4.63 29.4433 5.29 30.7438 6.39C33.3448 9.25 33.3448 13.21 30.9606 15.85Z" fill="black"/>
<path d="M55.9951 25.53C53.8276 23.33 51.0099 22.23 48.4089 22.23C45.8079 22.23 42.7734 23.33 40.8227 25.53L28.2512 37.85C23.9163 42.25 23.9163 49.07 28.2512 53.47C32.5862 57.87 39.3054 57.87 43.6404 53.47L55.9951 40.93C60.1133 36.75 60.1133 29.71 55.9951 25.53ZM52.9606 37.85L46.8916 44.01L39.0887 36.31L29.5517 45.99C29.5517 44.23 29.9852 42.25 31.5025 40.93L43.8571 28.39C44.9409 27.29 46.6749 26.63 48.1921 26.63C49.7094 26.63 51.4433 27.29 52.7438 28.39C55.3448 31.25 55.3448 35.21 52.9606 37.85Z" fill="black"/>
<circle cx="16" cy="43.23" r="3" fill="black"/>
<circle cx="19" cy="54.23" r="2" fill="black"/>
<circle cx="4" cy="48.23" r="4" fill="black"/>
</svg>
