<svg width="52" height="57" viewBox="0 0 52 57" fill="none" xmlns="http://www.w3.org/2000/svg">
<path d="M36.6305 3.45C34.069 1.15 30.7389 0 27.665 0C24.5911 0 21.0049 1.15 18.6995 3.45L3.84236 16.33C-1.28079 20.93 -1.28079 28.06 3.84236 32.66C8.96552 37.26 16.9064 37.26 22.0296 32.66L36.6305 19.55C41.4975 15.18 41.4975 7.82 36.6305 3.45ZM33.0443 16.33L25.8719 22.77L16.6502 14.72L5.37931 24.84C5.37931 23 5.89163 20.93 7.68473 19.55L22.2857 6.44C23.5665 5.29 25.6158 4.6 27.4089 4.6C29.202 4.6 31.2512 5.29 32.7882 6.44C35.8621 9.43 35.8621 13.57 33.0443 16.33ZM45.3399 11.73C45.3399 13.57 44.8276 15.18 44.3153 17.02C46.8768 19.78 46.8768 23.92 44.0591 26.45L36.8867 32.89L33.0443 29.44L25.8719 35.88C22.5419 38.87 17.931 40.48 13.5764 40.48C14.0887 41.17 14.601 41.86 15.3695 42.55C20.4926 47.15 28.4335 47.15 33.5566 42.55L48.1576 29.44C53.2808 24.84 53.2808 17.71 48.1576 13.11C46.8768 12.65 46.1084 12.19 45.3399 11.73Z" fill="black"/>
</svg>
