<svg width="64" height="37" viewBox="0 0 64 37" fill="none" xmlns="http://www.w3.org/2000/svg">
<path fill-rule="evenodd" clip-rule="evenodd" d="M51.9751 29.6C52.6416 29.5999 53.2936 29.8084 53.8519 30.2003L55.4126 0L56.2698 0.0518002L57.127 0L58.6876 30.2003C59.3269 29.7514 60.0868 29.5445 60.8474 29.6122C61.6079 29.6799 62.3259 30.0184 62.8881 30.5743C63.4502 31.1302 63.8245 31.8718 63.9518 32.6822C64.0792 33.4925 63.9524 34.3255 63.5914 35.0496C63.2304 35.7738 62.6559 36.3479 61.9583 36.6813C61.2608 37.0148 60.48 37.0887 59.7392 36.8913C58.9983 36.6939 58.3396 36.2365 57.8669 35.5913C57.3942 34.946 57.1345 34.1496 57.1287 33.3277L56.9363 29.6111H55.6024L55.4108 33.3277C55.4058 34.0583 55.1999 34.7709 54.8193 35.3757C54.4387 35.9805 53.9004 36.4505 53.2722 36.7262C52.644 37.002 51.954 37.0714 51.2892 36.9255C50.6245 36.7796 50.0147 36.425 49.5368 35.9065C49.0589 35.388 48.7342 34.7286 48.6037 34.0117C48.4732 33.2947 48.5427 32.5522 48.8035 31.8777C49.0643 31.2033 49.5047 30.627 50.0691 30.2217C50.6335 29.8163 51.2967 29.6 51.9751 29.6ZM56.2698 16.7018L56.841 27.7611H55.6986L56.2698 16.7018ZM56.2698 13.9074C56.3848 13.9114 56.4994 13.8904 56.6067 13.8458C56.7141 13.8011 56.812 13.7337 56.8947 13.6475C56.9774 13.5613 57.0432 13.4581 57.0881 13.344C57.133 13.2299 57.1562 13.1072 57.1563 12.9833C57.1563 12.8594 57.1333 12.7367 57.0884 12.6226C57.0436 12.5084 56.9779 12.4051 56.8953 12.3188C56.8127 12.2326 56.7149 12.165 56.6075 12.1203C56.5002 12.0755 56.3857 12.0544 56.2706 12.0583C56.0476 12.0658 55.8361 12.1664 55.6808 12.3389C55.5255 12.5113 55.4385 12.7421 55.4384 12.9824C55.4383 13.2226 55.525 13.4535 55.6802 13.6262C55.8353 13.7988 56.0468 13.8997 56.2698 13.9074ZM51.9751 31.45C51.5195 31.45 51.0826 31.6449 50.7604 31.9918C50.4383 32.3388 50.2573 32.8093 50.2573 33.3C50.2573 33.7906 50.4383 34.2612 50.7604 34.6081C51.0826 34.9551 51.5195 35.15 51.9751 35.15C52.4308 35.15 52.8677 34.9551 53.1899 34.6081C53.512 34.2612 53.693 33.7906 53.693 33.3C53.693 32.8093 53.512 32.3388 53.1899 31.9918C52.8677 31.6449 52.4308 31.45 51.9751 31.45ZM58.8465 33.3C58.8465 32.8093 59.0275 32.3388 59.3497 31.9918C59.6719 31.6449 60.1088 31.45 60.5644 31.45C61.02 31.45 61.4569 31.6449 61.7791 31.9918C62.1013 32.3388 62.2822 32.8093 62.2822 33.3C62.2822 33.7906 62.1013 34.2612 61.7791 34.6081C61.4569 34.9551 61.02 35.15 60.5644 35.15C60.1088 35.15 59.6719 34.9551 59.3497 34.6081C59.0275 34.2612 58.8465 33.7906 58.8465 33.3ZM45.1038 0.21645L43.8033 1.05727L44.2448 1.85C43.8033 1.05727 43.8016 1.05727 43.8016 1.05727L43.8008 1.0582L43.7973 1.06005L43.7913 1.06467L43.7759 1.07485C43.7143 1.11551 43.6552 1.16031 43.5989 1.20897C43.4535 1.32976 43.3141 1.45882 43.1815 1.59562C42.8474 1.94157 42.4188 2.47067 41.9833 3.2375C41.1106 4.77577 40.2294 7.23627 40.0052 11.038C39.9365 12.197 40.5592 13.1729 41.4465 13.6178C41.2445 13.833 41.0842 14.0891 40.9748 14.3714C40.8654 14.6537 40.8091 14.9566 40.8091 15.2625V34.6875C40.8091 35.3008 41.0354 35.889 41.4381 36.3227C41.8408 36.7564 42.3869 37 42.9564 37C43.5259 37 44.0721 36.7564 44.4748 36.3227C44.8775 35.889 45.1038 35.3008 45.1038 34.6875V15.2625C45.1038 14.4355 44.7009 13.7103 44.0954 13.3015C44.409 13.0424 44.663 12.7091 44.8379 12.3274C45.0128 11.9456 45.1037 11.5257 45.1038 11.1V0.21645ZM41.7196 11.1555C41.9223 7.72005 42.6919 5.58237 43.3859 4.31605V11.1C43.3859 11.3453 43.2954 11.5806 43.1343 11.7541C42.9732 11.9275 42.7548 12.025 42.527 12.025C42.0382 12.025 41.693 11.605 41.7196 11.1555ZM43.3859 15.342V15.2625C43.3859 15.1398 43.3407 15.0222 43.2601 14.9355C43.1796 14.8487 43.0703 14.8 42.9564 14.8C42.8425 14.8 42.7333 14.8487 42.6528 14.9355C42.5722 15.0222 42.527 15.1398 42.527 15.2625V16.267L43.3859 15.342ZM43.3859 17.9579V19.042L42.527 19.967V18.8829L43.3859 17.9579ZM43.3859 22.742V21.6579L42.527 22.5829V23.667L43.3859 22.742ZM43.3859 25.3579V34.6875C43.3859 34.8102 43.3407 34.9278 43.2601 35.0145C43.1796 35.1013 43.0703 35.15 42.9564 35.15C42.8425 35.15 42.7333 35.1013 42.6528 35.0145C42.5722 34.9278 42.527 34.8102 42.527 34.6875V26.2829L43.3859 25.3579Z" fill="black"/>
<path fill-rule="evenodd" clip-rule="evenodd" d="M20.8689 5.53555e-05C21.2127 0.510586 21.5476 1.00467 21.8735 1.48231L21.9083 1.49465L21.8993 1.52043C26.2194 7.8531 29.1951 11.5105 37 15.3552C37 20.255 34.1072 24.0335 30.3534 26.8399V33.4675C29.2882 35.6348 25.2697 37.1709 22.9219 36.9847C19.806 36.9847 18.2934 35.8949 17.5983 35.0764C17.5175 34.9831 17.4419 34.8854 17.3718 34.7838C17.2404 34.602 17.1344 34.4033 17.0567 34.1929V32.7308C17.0567 32.7308 16.3313 32.9685 15.2213 33.1995L14.8143 33.2802C11.0469 33.9899 3.85988 34.3431 3.85988 26.6874C3.85988 26.6874 0.384072 26.1571 0.0320067 24.2319C-0.320059 22.3046 2.34846 19.904 2.34846 19.904C3.25105 18.0327 3.22751 16.4506 3.2006 14.6556C3.19007 14.1257 3.18969 13.5956 3.19947 13.0657C3.26471 10.637 4.05635 8.28357 5.4722 6.30918C7.05658 4.39017 9.09926 2.90165 11.4113 1.98126C14.391 0.667846 17.6126 -0.00703897 20.8689 5.53555e-05Z" fill="black"/>
</svg>
