<svg width="70" height="41" viewBox="0 0 70 41" fill="none" xmlns="http://www.w3.org/2000/svg">
<path fill-rule="evenodd" clip-rule="evenodd" d="M57.9751 33.6C58.6416 33.5999 59.2936 33.8084 59.8519 34.2003L61.4126 4L62.2698 4.0518L63.127 4L64.6876 34.2003C65.3269 33.7514 66.0868 33.5445 66.8474 33.6122C67.6079 33.6799 68.3259 34.0184 68.8881 34.5743C69.4502 35.1302 69.8245 35.8718 69.9518 36.6822C70.0792 37.4925 69.9524 38.3255 69.5914 39.0496C69.2304 39.7738 68.6559 40.3479 67.9583 40.6813C67.2608 41.0148 66.48 41.0887 65.7392 40.8913C64.9983 40.6939 64.3396 40.2365 63.8669 39.5913C63.3942 38.946 63.1345 38.1496 63.1287 37.3277L62.9363 33.6111H61.6024L61.4108 37.3277C61.4058 38.0583 61.1999 38.7709 60.8193 39.3757C60.4387 39.9805 59.9004 40.4505 59.2722 40.7262C58.644 41.002 57.954 41.0714 57.2892 40.9255C56.6245 40.7796 56.0147 40.425 55.5368 39.9065C55.0589 39.388 54.7342 38.7286 54.6037 38.0117C54.4732 37.2947 54.5427 36.5522 54.8035 35.8777C55.0643 35.2033 55.5047 34.627 56.0691 34.2217C56.6335 33.8163 57.2967 33.6 57.9751 33.6ZM62.2698 20.7018L62.841 31.7611H61.6986L62.2698 20.7018ZM62.2698 17.9074C62.3848 17.9114 62.4994 17.8904 62.6067 17.8458C62.7141 17.8011 62.812 17.7337 62.8947 17.6475C62.9774 17.5613 63.0432 17.4581 63.0881 17.344C63.133 17.2299 63.1562 17.1072 63.1563 16.9833C63.1563 16.8594 63.1333 16.7367 63.0884 16.6226C63.0436 16.5084 62.9779 16.4051 62.8953 16.3188C62.8127 16.2326 62.7149 16.165 62.6075 16.1203C62.5002 16.0755 62.3857 16.0544 62.2706 16.0583C62.0476 16.0658 61.8361 16.1664 61.6808 16.3389C61.5255 16.5113 61.4385 16.7421 61.4384 16.9824C61.4383 17.2226 61.525 17.4535 61.6802 17.6262C61.8353 17.7988 62.0468 17.8997 62.2698 17.9074ZM57.9751 35.45C57.5195 35.45 57.0826 35.6449 56.7604 35.9918C56.4383 36.3388 56.2573 36.8093 56.2573 37.3C56.2573 37.7906 56.4383 38.2612 56.7604 38.6081C57.0826 38.9551 57.5195 39.15 57.9751 39.15C58.4308 39.15 58.8677 38.9551 59.1899 38.6081C59.512 38.2612 59.693 37.7906 59.693 37.3C59.693 36.8093 59.512 36.3388 59.1899 35.9918C58.8677 35.6449 58.4308 35.45 57.9751 35.45ZM64.8465 37.3C64.8465 36.8093 65.0275 36.3388 65.3497 35.9918C65.6718 35.6449 66.1088 35.45 66.5644 35.45C67.02 35.45 67.4569 35.6449 67.7791 35.9918C68.1013 36.3388 68.2822 36.8093 68.2822 37.3C68.2822 37.7906 68.1013 38.2612 67.7791 38.6081C67.4569 38.9551 67.02 39.15 66.5644 39.15C66.1088 39.15 65.6718 38.9551 65.3497 38.6081C65.0275 38.2612 64.8465 37.7906 64.8465 37.3ZM51.1038 4.21645L49.8033 5.05727L50.2448 5.85C49.8033 5.05727 49.8016 5.05727 49.8016 5.05727L49.8008 5.0582L49.7973 5.06005L49.7913 5.06467L49.7759 5.07485C49.7143 5.11551 49.6552 5.16031 49.5989 5.20897C49.4535 5.32976 49.3141 5.45882 49.1815 5.59562C48.8474 5.94157 48.4188 6.47067 47.9833 7.2375C47.1106 8.77577 46.2294 11.2363 46.0052 15.038C45.9365 16.197 46.5592 17.1729 47.4465 17.6178C47.2445 17.833 47.0842 18.0891 46.9748 18.3714C46.8654 18.6537 46.8091 18.9566 46.8091 19.2625V38.6875C46.8091 39.3008 47.0354 39.889 47.4381 40.3227C47.8408 40.7564 48.3869 41 48.9564 41C49.5259 41 50.0721 40.7564 50.4748 40.3227C50.8775 39.889 51.1038 39.3008 51.1038 38.6875V19.2625C51.1038 18.4355 50.7009 17.7103 50.0954 17.3015C50.409 17.0424 50.663 16.7091 50.8379 16.3274C51.0128 15.9456 51.1037 15.5257 51.1038 15.1V4.21645ZM47.7196 15.1555C47.9223 11.72 48.6919 9.58237 49.3859 8.31605V15.1C49.3859 15.3453 49.2954 15.5806 49.1343 15.7541C48.9732 15.9275 48.7548 16.025 48.527 16.025C48.0382 16.025 47.693 15.605 47.7196 15.1555ZM49.3859 19.342V19.2625C49.3859 19.1398 49.3407 19.0222 49.2601 18.9355C49.1796 18.8487 49.0703 18.8 48.9564 18.8C48.8425 18.8 48.7333 18.8487 48.6528 18.9355C48.5722 19.0222 48.527 19.1398 48.527 19.2625V20.267L49.3859 19.342ZM49.3859 21.9579V23.042L48.527 23.967V22.8829L49.3859 21.9579ZM49.3859 26.742V25.6579L48.527 26.5829V27.667L49.3859 26.742ZM49.3859 29.3579V38.6875C49.3859 38.8102 49.3407 38.9278 49.2601 39.0145C49.1796 39.1013 49.0703 39.15 48.9564 39.15C48.8425 39.15 48.7333 39.1013 48.6528 39.0145C48.5722 38.9278 48.527 38.8102 48.527 38.6875V30.2829L49.3859 29.3579Z" fill="black"/>
<path fill-rule="evenodd" clip-rule="evenodd" d="M26.8689 4.00006C27.2127 4.51059 27.5476 5.00467 27.8735 5.48231L27.9083 5.49465L27.8993 5.52043C32.2194 11.8531 35.1951 15.5105 43 19.3552C43 24.255 40.1072 28.0335 36.3534 30.8399V37.4675C35.2882 39.6348 31.2697 41.1709 28.9219 40.9847C25.806 40.9847 24.2934 39.8949 23.5983 39.0764C23.5175 38.9831 23.4419 38.8854 23.3718 38.7838C23.2404 38.602 23.1344 38.4033 23.0567 38.1929V36.7308C23.0567 36.7308 22.3313 36.9685 21.2213 37.1995L20.8143 37.2802C17.0469 37.9899 9.85988 38.3431 9.85988 30.6874C9.85988 30.6874 6.38407 30.1571 6.03201 28.2319C5.67994 26.3046 8.34846 23.904 8.34846 23.904C9.25105 22.0327 9.22751 20.4506 9.2006 18.6556C9.19007 18.1257 9.18969 17.5956 9.19947 17.0657C9.26471 14.637 10.0563 12.2836 11.4722 10.3092C13.0566 8.39017 15.0993 6.90165 17.4113 5.98126C20.391 4.66785 23.6126 3.99296 26.8689 4.00006Z" fill="black"/>
<path fill-rule="evenodd" clip-rule="evenodd" d="M37.1942 10.3338C34.7241 7.18776 31.4691 4.68957 27.4762 4.49943L27.5238 3.50056C31.9309 3.71043 35.4259 6.46223 37.9808 9.71622C40.5393 12.9749 42.2148 16.8092 42.9789 19.3563L42.0211 19.6437C41.2852 17.1908 39.6607 13.4751 37.1942 10.3338Z" fill="black"/>
<path d="M35.5 7L22.5 2L2.5 7C15.7 11.8 30 9 35.5 7Z" fill="black"/>
<path fill-rule="evenodd" clip-rule="evenodd" d="M22.532 1.47661L36.927 7.01313L35.6709 7.4699C30.1031 9.49454 15.6757 12.3232 2.32913 7.4699L0.793093 6.91134L22.532 1.47661ZM4.26979 7.07294C15.9167 10.7533 28.1286 8.78281 34.021 6.96685L22.468 2.52339L4.26979 7.07294Z" fill="black"/>
<path fill-rule="evenodd" clip-rule="evenodd" d="M26.6584 5.32918C27.0288 4.58821 27.9299 4.28788 28.6708 4.65836C29.4821 5.06401 30.2858 5.54487 31.0672 6.08458C31.4781 6.0425 31.7871 6.17958 31.874 6.21896C32.1081 6.325 32.2863 6.47462 32.3583 6.53563C32.4606 6.62236 32.5664 6.72288 32.6718 6.82823C32.8904 7.04682 33.1069 7.26703 33.3213 7.48918C33.2979 7.39965 33.2704 7.26691 33.265 7.11424C33.2611 7.00615 33.2611 6.75178 33.3823 6.46111C33.5286 6.11013 33.8484 5.7333 34.3657 5.58549C35.0179 5.39916 35.6661 5.37599 36.2885 5.56537C36.8991 5.75118 37.3526 6.10171 37.6864 6.4388C38.0062 6.76167 38.2707 7.13084 38.4648 7.40177L38.4836 7.42793C38.6917 7.71833 38.8409 7.92662 39.0038 8.10766C40.4057 9.66531 41.1855 11.5927 41.5955 13.5378C41.7885 13.912 41.9816 14.2806 42.1431 14.5782C42.2441 14.7641 42.3256 14.9091 42.3836 15.0063C42.3848 15.0083 42.386 15.0104 42.3872 15.0123C42.8606 15.5092 42.9972 16.1528 43.0527 16.4908C43.1304 16.9643 43.138 17.4792 43.1264 17.9259C43.1145 18.3834 43.0798 18.8424 43.0509 19.2134L43.0506 19.2172C43.0189 19.6235 43 19.8654 43 20C43 20.8284 42.3284 21.5 41.5 21.5C40.6716 21.5 40 20.8284 40 20C40 19.842 40.0104 19.6484 40.0242 19.4499L39 19.4499V18.2483C38.4688 18.4797 37.9626 18.3051 37.8579 18.2644C37.6479 18.1826 37.5077 18.072 37.4709 18.0429C37.3741 17.9665 37.3068 17.8932 37.2901 17.875L37.289 17.8738C37.2619 17.8443 37.2404 17.8186 37.2272 17.8027C37.2004 17.7702 37.1763 17.7388 37.1585 17.7153C37.1213 17.6662 37.0775 17.6058 37.0294 17.5385C35.605 15.5444 34.2286 13.8499 32.4393 12.0607C32.2052 11.8265 31.8597 11.3745 31.5593 10.965C31.2299 10.5162 30.8606 9.9877 30.5527 9.51871C30.5178 9.46547 30.4833 9.41248 30.4494 9.35999C29.4466 8.56274 28.389 7.87157 27.3292 7.34164C26.5882 6.97116 26.2879 6.07015 26.6584 5.32918Z" fill="black"/>
<path fill-rule="evenodd" clip-rule="evenodd" d="M19.7148 1.23478C21.0028 0.837433 22.4755 0.5 23.5 0.5C24.3284 0.5 25 1.17157 25 2C25 2.82843 24.3284 3.5 23.5 3.5C22.9489 3.5 21.8354 3.72007 20.5992 4.10146C19.3669 4.48163 18.3079 4.93082 17.8321 5.24808C17.1428 5.7076 16.2115 5.52134 15.7519 4.83205C15.2924 4.14276 15.4787 3.21145 16.1679 2.75192C17.0196 2.18417 18.4228 1.63337 19.7148 1.23478Z" fill="black"/>
<path fill-rule="evenodd" clip-rule="evenodd" d="M22.9386 3.98146C22.481 3.99055 22.0063 3.99999 21.5 3.99999C20.6716 3.99999 20 3.32842 20 2.49999C20 1.67156 20.6716 0.999991 21.5 0.999991C21.8798 0.999991 22.2907 0.99217 22.7185 0.984027C23.6438 0.966413 24.6482 0.947294 25.5881 1.00258C26.2047 1.03885 26.7203 1.27678 27.1074 1.51733C27.4938 1.75751 27.8332 2.05207 28.1031 2.30136C28.2325 2.42084 28.359 2.54229 28.4718 2.65066L28.4933 2.67137C28.616 2.78919 28.7221 2.89074 28.8236 2.98326C29.0419 3.18238 29.1552 3.26074 29.2018 3.28542C30.3111 3.87269 31.3396 4.6127 32.2664 5.27953C32.3071 5.30883 32.3476 5.33799 32.3879 5.36698C33.3807 6.08082 34.2614 6.70366 35.1708 7.15835C35.9118 7.52883 36.2121 8.42984 35.8416 9.17081C35.4712 9.91178 34.5701 10.2121 33.8292 9.84163C32.6714 9.26272 31.602 8.49695 30.6365 7.80265L30.5798 7.76189C29.6024 7.05899 28.7221 6.42593 27.7982 5.93678C27.3993 5.72564 27.0548 5.43043 26.8019 5.19978C26.6678 5.07742 26.535 4.95004 26.4153 4.83507L26.3996 4.82001C26.2816 4.70671 26.1748 4.60415 26.0679 4.50536C25.839 4.29406 25.6654 4.15338 25.5237 4.06525C25.449 4.01886 25.4061 4.00162 25.3906 3.99617C24.5709 3.949 23.7839 3.96465 22.9386 3.98146Z" fill="black"/>
</svg>
