<svg width="113" height="74" viewBox="0 0 113 74" fill="none" xmlns="http://www.w3.org/2000/svg">
<path d="M82.5451 49.1161C85.5797 46.6501 88.0038 43.557 89.6391 40.0645C91.2743 36.5721 92.079 32.7693 91.9939 28.9362C91.6939 15.6715 80.7124 4.7342 67.0252 4.03775C63.4937 3.85179 59.9595 4.3543 56.6327 5.51543C53.3058 6.67657 50.2541 8.47265 47.6587 10.797C45.0633 13.1214 42.9772 15.9266 41.5243 19.0461C40.0714 22.1656 39.2813 25.5358 39.2009 28.9565L32.4668 41.4869C32.4398 41.5392 32.4128 41.5914 32.3888 41.6436C31.906 42.7323 31.8716 43.9583 32.2926 45.0707C32.7136 46.1831 33.5582 47.0977 34.6535 47.6274L34.7285 47.6593L41.6006 50.7034V59.7168C41.6006 60.9482 42.1062 62.1292 43.0063 62.9999C43.9063 63.8706 45.1271 64.3598 46.3999 64.3598H60.798C61.4345 64.3598 62.0448 64.1152 62.4949 63.6799C62.9449 63.2445 63.1977 62.654 63.1977 62.0383C63.1977 61.4226 62.9449 60.8321 62.4949 60.3967C62.0448 59.9614 61.4345 59.7168 60.798 59.7168H46.3999V49.2147C46.4003 48.7698 46.2684 48.3341 46.0201 47.9595C45.7717 47.585 45.4173 47.2874 44.9991 47.1021L36.8012 43.466L43.7213 30.599C43.9017 30.272 43.9974 29.9075 44.0002 29.5369C43.9995 24.8019 45.6613 20.2072 48.7132 16.5055C51.765 12.8038 56.0261 10.2147 60.798 9.16253V13.6866C59.1969 14.2342 57.8475 15.3118 56.9882 16.7289C56.1289 18.146 55.8152 19.8114 56.1023 21.4306C56.3895 23.0499 57.2591 24.5188 58.5575 25.5777C59.8559 26.6367 61.4995 27.2175 63.1977 27.2175C64.8959 27.2175 66.5395 26.6367 67.8379 25.5777C69.1363 24.5188 70.0059 23.0499 70.2931 21.4306C70.5802 19.8114 70.2665 18.146 69.4072 16.7289C68.5479 15.3118 67.1985 14.2342 65.5974 13.6866V8.64308C65.9873 8.64308 66.3773 8.64308 66.7672 8.6721C71.0227 8.90792 75.1118 10.3523 78.5232 12.8247C81.9346 15.2971 84.5167 18.6876 85.9467 22.5723H79.9955C79.6434 22.5721 79.2957 22.6469 78.9769 22.7914C78.6581 22.9358 78.376 23.1463 78.1507 23.408L70.4987 32.2937C68.9028 31.7184 67.1481 31.7076 65.5448 32.2633C63.9415 32.819 62.593 33.9053 61.7377 35.3301C60.8825 36.7549 60.5756 38.4264 60.8715 40.0489C61.1673 41.6715 62.0467 43.1406 63.3541 44.1964C64.6616 45.2522 66.3129 45.8266 68.0159 45.8182C69.719 45.8097 71.3641 45.2188 72.6602 44.1501C73.9564 43.0813 74.8201 41.6036 75.0987 39.9781C75.3772 38.3527 75.0526 36.6844 74.1822 35.2681L81.1203 27.2153H87.0565C87.1285 27.8189 87.1725 28.4283 87.1885 29.0435C87.2633 32.3687 86.5195 35.6633 85.0184 38.6555C83.5174 41.6476 81.3022 44.2514 78.5557 46.2519C78.2172 46.4973 77.9519 46.8249 77.7865 47.2015C77.6211 47.5781 77.5615 47.9904 77.6138 48.3964L80.0135 66.9687C80.0865 67.5293 80.3684 68.045 80.8063 68.4189C81.2442 68.7929 81.808 68.9995 82.3922 69C82.4924 69.0003 82.5926 68.9944 82.6921 68.9826C83.0049 68.9449 83.307 68.848 83.581 68.6974C83.8551 68.5467 84.0958 68.3453 84.2894 68.1047C84.483 67.864 84.6257 67.5888 84.7093 67.2948C84.793 67.0008 84.8159 66.6938 84.7768 66.3912L82.5451 49.1161ZM63.1977 22.5723C62.7231 22.5723 62.2591 22.4361 61.8645 22.181C61.4699 21.9259 61.1623 21.5634 60.9807 21.1391C60.7991 20.7149 60.7515 20.2482 60.8441 19.7978C60.9367 19.3475 61.1653 18.9338 61.5009 18.6092C61.8365 18.2845 62.2641 18.0634 62.7295 17.9738C63.195 17.8842 63.6775 17.9302 64.116 18.1059C64.5545 18.2816 64.9293 18.5792 65.193 18.961C65.4566 19.3427 65.5974 19.7916 65.5974 20.2507C65.5974 20.8664 65.3446 21.4569 64.8945 21.8923C64.4445 22.3277 63.8341 22.5723 63.1977 22.5723ZM67.9971 41.1445C67.5225 41.1445 67.0585 41.0084 66.6639 40.7533C66.2692 40.4982 65.9617 40.1356 65.78 39.7114C65.5984 39.2872 65.5509 38.8204 65.6435 38.3701C65.7361 37.9197 65.9646 37.5061 66.3002 37.1814C66.6358 36.8567 67.0634 36.6356 67.5289 36.5461C67.9944 36.4565 68.4769 36.5025 68.9154 36.6782C69.3539 36.8539 69.7287 37.1514 69.9923 37.5332C70.256 37.915 70.3967 38.3638 70.3967 38.823C70.3967 39.4387 70.1439 40.0292 69.6939 40.4646C69.2439 40.8999 68.6335 41.1445 67.9971 41.1445Z" fill="black"/>
<path d="M60 7.33333L49.4757 5.10422C46.0267 4.3737 42.4765 4.25216 38.9856 4.74509L35.4771 5.2405C26.3812 6.52487 18.7735 12.8007 15.7833 21.4865L14.5304 25.1258C14.0317 26.5747 13.18 27.8765 12.0522 28.9139L7.41588 33.1786C4.15993 36.1735 5.42781 41.5766 9.67612 42.8107V42.8107C12.1019 43.5153 13.7705 45.7376 13.7705 48.2636V51.5345C13.7705 57.94 19.6906 62.7056 25.9483 61.3375L44.2623 57.3333" stroke="black" stroke-width="7"/>
</svg>
