<svg width="56" height="60" viewBox="0 0 56 60" fill="none" xmlns="http://www.w3.org/2000/svg">
<path d="M47.1755 41.6456C50.0077 39.3693 52.2703 36.5141 53.7965 33.2903C55.3227 30.0666 56.0737 26.5563 55.9943 23.018C55.7143 10.7737 45.4649 0.677727 32.6902 0.0348417C29.3941 -0.136813 26.0956 0.327043 22.9905 1.39886C19.8854 2.47068 17.0371 4.1286 14.6148 6.27416C12.1924 8.41973 10.2454 11.0092 8.88934 13.8887C7.53328 16.7683 6.79584 19.8792 6.72082 23.0367L0.435656 34.6033C0.410459 34.6515 0.385263 34.6998 0.362866 34.748C-0.0877349 35.7529 -0.11985 36.8846 0.273095 37.9114C0.666041 38.9382 1.45433 39.7825 2.47659 40.2714L2.54658 40.3009L8.96053 43.1109V51.4309C8.96053 52.5676 9.43246 53.6577 10.2725 54.4615C11.1126 55.2652 12.2519 55.7168 13.4399 55.7168H26.8782C27.4722 55.7168 28.0418 55.491 28.4619 55.0891C28.8819 54.6872 29.1179 54.1422 29.1179 53.5738C29.1179 53.0055 28.8819 52.4604 28.4619 52.0585C28.0418 51.6566 27.4722 51.4309 26.8782 51.4309H13.4399V41.7367C13.4403 41.3259 13.3172 40.9237 13.0854 40.578C12.8536 40.2323 12.5228 39.9576 12.1325 39.7866L4.48112 36.4302L10.9399 24.5529C11.1082 24.251 11.1976 23.9146 11.2002 23.5725C11.1996 19.2018 12.7505 14.9605 15.599 11.5435C18.4474 8.12659 22.4243 5.73668 26.8782 4.76541V8.94149C25.3838 9.447 24.1243 10.4417 23.3223 11.7498C22.5203 13.0579 22.2275 14.5951 22.4955 16.0898C22.7635 17.5845 23.5752 18.9404 24.787 19.9179C25.9989 20.8954 27.5328 21.4315 29.1179 21.4315C30.7029 21.4315 32.2368 20.8954 33.4487 19.9179C34.6605 18.9404 35.4722 17.5845 35.7402 16.0898C36.0082 14.5951 35.7154 13.0579 34.9134 11.7498C34.1114 10.4417 32.8519 9.447 31.3576 8.94149V4.28592C31.7215 4.28592 32.0855 4.28592 32.4494 4.31271C36.4212 4.53039 40.2377 5.8637 43.4217 8.14588C46.6056 10.4281 49.0156 13.5578 50.3502 17.1436H44.7958C44.4672 17.1435 44.1426 17.2126 43.8451 17.3459C43.5475 17.4792 43.2843 17.6735 43.074 17.9151L35.9322 26.1172C34.4427 25.5862 32.8049 25.5763 31.3085 26.0892C29.8121 26.6021 28.5534 27.6049 27.7552 28.9201C26.957 30.2353 26.6706 31.7782 26.9467 33.2759C27.2228 34.7737 28.0435 36.1298 29.2639 37.1044C30.4842 38.0789 32.0253 38.6092 33.6149 38.6014C35.2044 38.5936 36.7398 38.0481 37.9496 37.0616C39.1593 36.0751 39.9655 34.711 40.2254 33.2106C40.4854 31.7102 40.1824 30.1702 39.3701 28.8629L45.8456 21.4295H51.3861C51.4533 21.9867 51.4944 22.5492 51.5093 23.1171C51.5791 26.1865 50.8849 29.2277 49.4839 31.9897C48.0829 34.7516 46.0153 37.1552 43.452 39.0017C43.1361 39.2283 42.8884 39.5307 42.734 39.8784C42.5797 40.226 42.5241 40.6065 42.5729 40.9813L44.8126 58.1249C44.8807 58.6424 45.1438 59.1184 45.5525 59.4636C45.9612 59.8088 46.4875 59.9995 47.0327 60C47.1263 60.0002 47.2198 59.9949 47.3126 59.9839C47.6046 59.9491 47.8865 59.8597 48.1423 59.7206C48.3981 59.5816 48.6227 59.3957 48.8034 59.1736C48.9841 58.9514 49.1173 58.6974 49.1954 58.426C49.2734 58.1546 49.2948 57.8712 49.2584 57.5918L47.1755 41.6456ZM29.1179 17.1436C28.6749 17.1436 28.2419 17.018 27.8735 16.7825C27.5052 16.547 27.2182 16.2123 27.0486 15.8208C26.8791 15.4292 26.8348 14.9983 26.9212 14.5826C27.0076 14.1669 27.2209 13.7851 27.5341 13.4854C27.8474 13.1857 28.2465 12.9816 28.6809 12.8989C29.1154 12.8162 29.5657 12.8587 29.975 13.0209C30.3842 13.183 30.734 13.4577 30.9801 13.8101C31.2262 14.1625 31.3576 14.5768 31.3576 15.0007C31.3576 15.569 31.1216 16.1141 30.7016 16.516C30.2815 16.9179 29.7119 17.1436 29.1179 17.1436ZM33.5973 34.2872C33.1543 34.2872 32.7213 34.1616 32.3529 33.9261C31.9846 33.6906 31.6976 33.3559 31.528 32.9644C31.3585 32.5728 31.3142 32.1419 31.4006 31.7262C31.487 31.3105 31.7003 30.9287 32.0135 30.629C32.3268 30.3293 32.7259 30.1252 33.1603 30.0425C33.5948 29.9598 34.0451 30.0023 34.4544 30.1645C34.8636 30.3267 35.2134 30.6013 35.4595 30.9537C35.7056 31.3061 35.837 31.7205 35.837 32.1443C35.837 32.7126 35.601 33.2577 35.181 33.6596C34.7609 34.0615 34.1913 34.2872 33.5973 34.2872Z" fill="black"/>
</svg>
